<svg xmlns="http://www.w3.org/2000/svg" width="18" height="18" fill="none"><path fill="#29CDB5" d="M9 6.679a2.321 2.321 0 1 0 0 4.643 2.321 2.321 0 0 0 0-4.643Z"/><path fill="#29CDB5" fill-rule="evenodd" d="M5.264 2.63a33.908 33.908 0 0 1 7.472 0 2.957 2.957 0 0 1 2.609 2.58 32.632 32.632 0 0 1 0 7.58 2.957 2.957 0 0 1-2.609 2.58c-2.463.276-5.01.276-7.472 0a2.957 2.957 0 0 1-2.609-2.58 32.622 32.622 0 0 1 0-7.58 2.957 2.957 0 0 1 2.609-2.58Zm7.308 2.084a.714.714 0 1 0 0 1.429.714.714 0 0 0 0-1.429ZM5.607 9a3.393 3.393 0 1 1 6.786 0 3.393 3.393 0 0 1-6.786 0Z" clip-rule="evenodd"/></svg>