<svg xmlns="http://www.w3.org/2000/svg" width="40" height="46" fill="none"><path fill="#69B99D" fill-rule="evenodd" d="M.875 19.215C.875 8.865 9.524.5 19.985.5c10.491 0 19.14 8.365 19.14 18.715 0 5.215-1.897 10.057-5.019 14.161A49.647 49.647 0 0 1 21.64 44.943c-1.093.715-2.08.77-3.28 0A48.693 48.693 0 0 1 5.893 33.376C2.769 29.272.875 24.43.875 19.215Zm12.812.583c0 3.467 2.83 6.194 6.298 6.194 3.471 0 6.328-2.727 6.328-6.194 0-3.44-2.857-6.3-6.328-6.3-3.469 0-6.298 2.86-6.298 6.3Z" clip-rule="evenodd"/></svg>