<svg xmlns="http://www.w3.org/2000/svg" width="304" height="388" fill="none"><g filter="url(#a)"><path fill="#FEFEFF" d="M30 52h174v236H30z"/></g><g filter="url(#b)"><path fill="#69B99D" fill-rule="evenodd" d="M111.227 38.666h11.56c4.52 0 7.546 3.174 7.546 7.894v10.895c0 4.705-3.026 7.878-7.546 7.878h-11.56c-4.52 0-7.56-3.173-7.56-7.878V46.56c0-4.72 3.04-7.894 7.56-7.894Zm5.013 17.32 6.333-6.333a1.174 1.174 0 0 0 0-1.653 1.175 1.175 0 0 0-1.653 0l-5.507 5.507-2.333-2.334a1.174 1.174 0 0 0-1.653 0 1.174 1.174 0 0 0 0 1.654l3.173 3.16c.227.226.52.333.813.333.307 0 .6-.107.827-.334Z" clip-rule="evenodd"/></g><path fill="#054457" d="M65.88 137.408v-4.968l25.272-34.992H99v34.272h7.2v5.688H99V149h-6.48v-11.592H65.88Zm26.928-33.12L73.44 131.72h19.368v-27.432Zm23.285 45.144c-1.248 0-2.304-.432-3.168-1.296-.864-.864-1.296-1.92-1.296-3.168 0-1.248.432-2.304 1.296-3.168.864-.864 1.92-1.296 3.168-1.296 1.2 0 2.208.432 3.024 1.296.864.864 1.296 1.92 1.296 3.168 0 1.248-.432 2.304-1.296 3.168-.816.864-1.824 1.296-3.024 1.296Zm21.633-27.504c-2.688-1.056-4.752-2.592-6.192-4.608-1.44-2.016-2.16-4.464-2.16-7.344 0-2.592.648-4.92 1.944-6.984 1.296-2.112 3.216-3.768 5.76-4.968 2.592-1.248 5.712-1.872 9.36-1.872 3.648 0 6.744.624 9.288 1.872 2.592 1.2 4.536 2.856 5.832 4.968 1.344 2.064 2.016 4.392 2.016 6.984 0 2.784-.744 5.232-2.232 7.344-1.488 2.064-3.528 3.6-6.12 4.608 2.976.912 5.328 2.52 7.056 4.824 1.776 2.256 2.664 4.992 2.664 8.208 0 3.12-.768 5.856-2.304 8.208-1.536 2.304-3.72 4.104-6.552 5.4-2.784 1.248-6 1.872-9.648 1.872-3.648 0-6.864-.624-9.648-1.872-2.736-1.296-4.872-3.096-6.408-5.4-1.536-2.352-2.304-5.088-2.304-8.208 0-3.216.864-5.976 2.592-8.28 1.728-2.304 4.08-3.888 7.056-4.752Zm19.512-11.16c0-2.928-.96-5.184-2.88-6.768-1.92-1.584-4.56-2.376-7.92-2.376-3.312 0-5.928.792-7.848 2.376-1.92 1.584-2.88 3.864-2.88 6.84 0 2.688.984 4.848 2.952 6.48 2.016 1.632 4.608 2.448 7.776 2.448 3.216 0 5.808-.816 7.776-2.448 2.016-1.68 3.024-3.864 3.024-6.552Zm-10.8 14.04c-3.552 0-6.456.84-8.712 2.52-2.256 1.632-3.384 4.104-3.384 7.416 0 3.072 1.08 5.544 3.24 7.416 2.208 1.872 5.16 2.808 8.856 2.808 3.696 0 6.624-.936 8.784-2.808 2.16-1.872 3.24-4.344 3.24-7.416 0-3.216-1.104-5.664-3.312-7.344-2.208-1.728-5.112-2.592-8.712-2.592Z"/><path fill="#A6A6A6" d="M82.096 212.848v1.184h-3.04V224H77.6v-9.968h-3.056v-1.184h7.552Zm3.288 3.808a2.808 2.808 0 0 1 1.088-1.168c.48-.277 1.062-.416 1.744-.416v1.504h-.384c-1.632 0-2.448.885-2.448 2.656V224h-1.456v-8.768h1.456v1.424Zm12.329-1.424V224h-1.456v-1.296c-.277.448-.667.8-1.168 1.056a3.602 3.602 0 0 1-1.632.368c-.683 0-1.296-.139-1.84-.416a3.186 3.186 0 0 1-1.296-1.28c-.31-.565-.464-1.253-.464-2.064v-5.136h1.44v4.944c0 .864.219 1.531.656 2 .437.459 1.035.688 1.792.688.779 0 1.392-.24 1.84-.72.448-.48.672-1.179.672-2.096v-4.816h1.456Zm5.602 8.912c-.672 0-1.274-.112-1.808-.336-.533-.235-.954-.555-1.264-.96a2.598 2.598 0 0 1-.512-1.424h1.504c.043.437.246.795.608 1.072.374.277.859.416 1.456.416.555 0 .992-.123 1.312-.368.32-.245.48-.555.48-.928a.897.897 0 0 0-.512-.848c-.341-.192-.869-.379-1.584-.56a13.074 13.074 0 0 1-1.6-.512 3.044 3.044 0 0 1-1.056-.784c-.288-.352-.432-.811-.432-1.376 0-.448.134-.859.4-1.232.267-.373.646-.667 1.136-.88.491-.224 1.051-.336 1.68-.336.971 0 1.755.245 2.352.736.598.491.918 1.163.96 2.016h-1.456c-.032-.459-.218-.827-.56-1.104-.33-.277-.778-.416-1.344-.416-.522 0-.938.112-1.248.336-.309.224-.464.517-.464.88 0 .288.091.528.272.72.192.181.427.331.704.448.288.107.683.229 1.184.368.63.171 1.142.341 1.536.512.395.16.731.405 1.008.736.288.331.438.763.448 1.296 0 .48-.133.912-.4 1.296-.266.384-.645.688-1.136.912-.48.213-1.034.32-1.664.32Zm7.072-7.712v5.168c0 .427.09.731.272.912.181.171.496.256.944.256h1.072V224h-1.312c-.811 0-1.419-.187-1.824-.56-.406-.373-.608-.987-.608-1.84v-5.168h-1.136v-1.2h1.136v-2.208h1.456v2.208h2.288v1.2h-2.288Zm12.092 2.848c0 .277-.016.571-.048.88h-7.008c.053.864.347 1.541.88 2.032.544.48 1.2.72 1.968.72.629 0 1.152-.144 1.568-.432.427-.299.725-.693.896-1.184h1.568a3.807 3.807 0 0 1-1.408 2.064c-.704.523-1.579.784-2.624.784-.832 0-1.579-.187-2.24-.56a3.984 3.984 0 0 1-1.536-1.584c-.373-.693-.56-1.493-.56-2.4 0-.907.181-1.701.544-2.384a3.781 3.781 0 0 1 1.52-1.568c.661-.373 1.419-.56 2.272-.56.832 0 1.568.181 2.208.544a3.7 3.7 0 0 1 1.472 1.504c.352.629.528 1.344.528 2.144Zm-1.504-.304c0-.555-.123-1.029-.368-1.424a2.316 2.316 0 0 0-1.008-.912 3.01 3.01 0 0 0-1.392-.32c-.736 0-1.365.235-1.888.704-.512.469-.805 1.12-.88 1.952h5.536Zm2.922.608c0-.896.181-1.68.544-2.352a3.938 3.938 0 0 1 1.488-1.584 4.178 4.178 0 0 1 2.144-.56c.682 0 1.317.16 1.904.48.586.309 1.034.72 1.344 1.232v-4.64h1.472V224h-1.472v-1.648c-.288.523-.715.955-1.28 1.296-.566.331-1.227.496-1.984.496a4.056 4.056 0 0 1-2.128-.576 4.033 4.033 0 0 1-1.488-1.616c-.363-.693-.544-1.483-.544-2.368Zm7.424.016c0-.661-.134-1.237-.4-1.728a2.758 2.758 0 0 0-1.088-1.12 2.851 2.851 0 0 0-1.488-.4c-.544 0-1.04.128-1.488.384a2.78 2.78 0 0 0-1.072 1.12c-.267.491-.4 1.067-.4 1.728 0 .672.133 1.259.4 1.76.266.491.624.869 1.072 1.136.448.256.944.384 1.488.384s1.04-.128 1.488-.384a2.87 2.87 0 0 0 1.088-1.136c.266-.501.4-1.083.4-1.744Zm12.102 4.544a4.538 4.538 0 0 1-2.24-.56 4.068 4.068 0 0 1-1.568-1.584c-.373-.693-.56-1.493-.56-2.4 0-.896.192-1.685.576-2.368a4.015 4.015 0 0 1 1.6-1.584c.672-.373 1.424-.56 2.256-.56.832 0 1.584.187 2.256.56.672.363 1.2.885 1.584 1.568.395.683.592 1.477.592 2.384 0 .907-.203 1.707-.608 2.4a4.114 4.114 0 0 1-1.616 1.584c-.683.373-1.44.56-2.272.56Zm0-1.28c.523 0 1.013-.123 1.472-.368a2.74 2.74 0 0 0 1.104-1.104c.288-.491.432-1.088.432-1.792s-.139-1.301-.416-1.792c-.277-.491-.64-.853-1.088-1.088a2.986 2.986 0 0 0-1.456-.368c-.533 0-1.024.123-1.472.368-.437.235-.789.597-1.056 1.088-.267.491-.4 1.088-.4 1.792 0 .715.128 1.317.384 1.808.267.491.619.859 1.056 1.104.437.235.917.352 1.44.352Zm10.722-7.792c1.067 0 1.931.325 2.592.976.662.64.992 1.568.992 2.784V224h-1.44v-4.96c0-.875-.218-1.541-.656-2-.437-.469-1.034-.704-1.792-.704-.768 0-1.381.24-1.84.72-.448.48-.672 1.179-.672 2.096V224h-1.456v-8.768h1.456v1.248a2.905 2.905 0 0 1 1.168-1.04 3.706 3.706 0 0 1 1.648-.368Z"/><path fill="#054457" d="M70.368 239.696h-5.616v3.648c.245-.341.608-.619 1.088-.832.48-.224.997-.336 1.552-.336.885 0 1.605.187 2.16.56.555.363.95.837 1.184 1.424.245.576.368 1.189.368 1.84 0 .768-.144 1.456-.432 2.064a3.265 3.265 0 0 1-1.328 1.44c-.587.352-1.317.528-2.192.528-1.12 0-2.027-.288-2.72-.864-.693-.576-1.115-1.344-1.264-2.304h1.424c.139.608.432 1.083.88 1.424.448.341 1.013.512 1.696.512.843 0 1.477-.251 1.904-.752.427-.512.64-1.184.64-2.016 0-.832-.213-1.472-.64-1.92-.427-.459-1.056-.688-1.888-.688-.565 0-1.061.139-1.488.416-.416.267-.72.635-.912 1.104h-1.376v-6.528h6.96v1.28Zm2.71 4.4c0-1.835.3-3.264.897-4.288.597-1.035 1.643-1.552 3.136-1.552 1.483 0 2.522.517 3.12 1.552.597 1.024.896 2.453.896 4.288 0 1.867-.299 3.317-.896 4.352-.597 1.035-1.637 1.552-3.12 1.552-1.493 0-2.539-.517-3.136-1.552-.597-1.035-.896-2.485-.896-4.352Zm6.609 0c0-.928-.064-1.712-.192-2.352-.118-.651-.368-1.173-.752-1.568-.373-.395-.917-.592-1.632-.592-.726 0-1.28.197-1.664.592-.374.395-.624.917-.752 1.568-.117.64-.176 1.424-.176 2.352 0 .96.058 1.765.176 2.416.128.651.379 1.173.752 1.568.384.395.938.592 1.664.592.715 0 1.258-.197 1.632-.592.384-.395.635-.917.752-1.568.128-.651.192-1.456.192-2.416Zm3.479 0c0-1.835.298-3.264.896-4.288.597-1.035 1.642-1.552 3.136-1.552 1.482 0 2.522.517 3.12 1.552.597 1.024.896 2.453.896 4.288 0 1.867-.299 3.317-.896 4.352-.598 1.035-1.638 1.552-3.12 1.552-1.494 0-2.539-.517-3.136-1.552-.598-1.035-.896-2.485-.896-4.352Zm6.608 0c0-.928-.064-1.712-.192-2.352-.118-.651-.368-1.173-.752-1.568-.374-.395-.918-.592-1.632-.592-.726 0-1.28.197-1.664.592-.374.395-.624.917-.752 1.568-.118.64-.176 1.424-.176 2.352 0 .96.058 1.765.176 2.416.128.651.378 1.173.752 1.568.384.395.938.592 1.664.592.714 0 1.258-.197 1.632-.592.384-.395.634-.917.752-1.568.128-.651.192-1.456.192-2.416Zm12.039.672h-3.408v3.456h-1.36v-3.456h-3.392v-1.232h3.392v-3.472h1.36v3.472h3.408v1.232ZM114.632 250l-2.656-4.56h-1.76V250h-1.456v-11.152h3.6c.843 0 1.552.144 2.128.432.587.288 1.024.677 1.312 1.168.288.491.432 1.051.432 1.68 0 .768-.224 1.445-.672 2.032-.437.587-1.099.976-1.984 1.168l2.8 4.672h-1.744Zm-4.416-5.728h2.144c.789 0 1.381-.192 1.776-.576.395-.395.592-.917.592-1.568 0-.661-.197-1.173-.592-1.536-.384-.363-.976-.544-1.776-.544h-2.144v4.224Zm16.319 1.008c0 .277-.016.571-.048.88h-7.008c.053.864.346 1.541.88 2.032.544.48 1.2.72 1.968.72.629 0 1.152-.144 1.568-.432.426-.299.725-.693.896-1.184h1.568a3.807 3.807 0 0 1-1.408 2.064c-.704.523-1.579.784-2.624.784-.832 0-1.579-.187-2.24-.56a3.984 3.984 0 0 1-1.536-1.584c-.374-.693-.56-1.493-.56-2.4 0-.907.181-1.701.544-2.384a3.775 3.775 0 0 1 1.52-1.568c.661-.373 1.418-.56 2.272-.56.832 0 1.568.181 2.208.544.64.363 1.13.864 1.472 1.504.352.629.528 1.344.528 2.144Zm-1.504-.304c0-.555-.123-1.029-.368-1.424a2.327 2.327 0 0 0-1.008-.912 3.01 3.01 0 0 0-1.392-.32c-.736 0-1.366.235-1.888.704-.512.469-.806 1.12-.88 1.952h5.536Zm6.729 3.68 2.72-7.424h1.552l-3.44 8.768h-1.696l-3.44-8.768h1.568l2.736 7.424Zm6.497-8.848a.958.958 0 0 1-.704-.288.958.958 0 0 1-.288-.704c0-.277.096-.512.288-.704a.958.958 0 0 1 .704-.288c.267 0 .491.096.672.288a.958.958 0 0 1 .288.704.958.958 0 0 1-.288.704.886.886 0 0 1-.672.288Zm.704 1.424V250h-1.456v-8.768h1.456Zm10.522 4.048c0 .277-.016.571-.048.88h-7.008c.053.864.346 1.541.88 2.032.544.48 1.2.72 1.968.72.629 0 1.152-.144 1.568-.432.426-.299.725-.693.896-1.184h1.568a3.807 3.807 0 0 1-1.408 2.064c-.704.523-1.579.784-2.624.784-.832 0-1.579-.187-2.24-.56a3.984 3.984 0 0 1-1.536-1.584c-.374-.693-.56-1.493-.56-2.4 0-.907.181-1.701.544-2.384a3.775 3.775 0 0 1 1.52-1.568c.661-.373 1.418-.56 2.272-.56.832 0 1.568.181 2.208.544.64.363 1.13.864 1.472 1.504.352.629.528 1.344.528 2.144Zm-1.504-.304c0-.555-.123-1.029-.368-1.424a2.327 2.327 0 0 0-1.008-.912 3.01 3.01 0 0 0-1.392-.32c-.736 0-1.366.235-1.888.704-.512.469-.806 1.12-.88 1.952h5.536Zm15.146-3.744L160.389 250h-1.504l-2.112-6.96-2.112 6.96h-1.504l-2.752-8.768h1.488l2.016 7.36 2.176-7.36h1.488l2.128 7.376 1.984-7.376h1.44Zm4.589 8.912c-.672 0-1.275-.112-1.808-.336-.534-.235-.955-.555-1.264-.96a2.59 2.59 0 0 1-.512-1.424h1.504c.042.437.245.795.608 1.072.373.277.858.416 1.456.416.554 0 .992-.123 1.312-.368.32-.245.48-.555.48-.928 0-.384-.171-.667-.512-.848-.342-.192-.87-.379-1.584-.56a13.017 13.017 0 0 1-1.6-.512 3.026 3.026 0 0 1-1.056-.784c-.288-.352-.432-.811-.432-1.376 0-.448.133-.859.4-1.232.266-.373.645-.667 1.136-.88.49-.224 1.05-.336 1.68-.336.97 0 1.754.245 2.352.736.597.491.917 1.163.96 2.016h-1.456a1.494 1.494 0 0 0-.56-1.104c-.331-.277-.779-.416-1.344-.416-.523 0-.939.112-1.248.336-.31.224-.464.517-.464.88 0 .288.09.528.272.72.192.181.426.331.704.448.288.107.682.229 1.184.368.629.171 1.141.341 1.536.512.394.16.73.405 1.008.736.288.331.437.763.448 1.296 0 .48-.134.912-.4 1.296-.267.384-.646.688-1.136.912-.48.213-1.035.32-1.664.32Z"/><g clip-path="url(#c)"><path fill="#69B99D" d="M77.17 187.75a.753.753 0 0 1-.345-.083L73 185.665l-3.825 2.002a.747.747 0 0 1-1.045-.384.75.75 0 0 1-.043-.411l.75-4.222-3.09-3a.75.75 0 0 1-.187-.75.751.751 0 0 1 .607-.51l4.275-.623 1.883-3.847a.751.751 0 0 1 1.073-.309c.12.075.216.182.277.309l1.905 3.84 4.275.622a.746.746 0 0 1 .607.51.75.75 0 0 1-.187.75l-3.09 3 .75 4.223a.75.75 0 0 1-.3.75.749.749 0 0 1-.465.135Z"/></g><g clip-path="url(#d)"><path fill="#69B99D" d="M99.17 187.75a.753.753 0 0 1-.345-.083L95 185.665l-3.825 2.002a.747.747 0 0 1-1.045-.384.75.75 0 0 1-.043-.411l.75-4.222-3.09-3a.75.75 0 0 1-.187-.75.751.751 0 0 1 .607-.51l4.275-.623 1.883-3.847a.751.751 0 0 1 1.073-.309c.12.075.216.182.277.309l1.905 3.84 4.275.622a.749.749 0 0 1 .607.51.748.748 0 0 1-.187.75l-3.09 3 .75 4.223a.75.75 0 0 1-.3.75.749.749 0 0 1-.465.135Z"/></g><g clip-path="url(#e)"><path fill="#69B99D" d="M121.17 187.75a.753.753 0 0 1-.345-.083L117 185.665l-3.825 2.002a.746.746 0 0 1-1.045-.384.758.758 0 0 1-.043-.411l.75-4.222-3.09-3a.751.751 0 0 1-.187-.75.743.743 0 0 1 .607-.51l4.275-.623 1.883-3.847a.745.745 0 0 1 .675-.423.755.755 0 0 1 .675.423l1.905 3.84 4.275.622a.749.749 0 0 1 .607.51.748.748 0 0 1-.187.75l-3.09 3 .75 4.223a.75.75 0 0 1-.3.75.749.749 0 0 1-.465.135Z"/></g><g clip-path="url(#f)"><path fill="#69B99D" d="M143.17 187.75a.753.753 0 0 1-.345-.083L139 185.665l-3.825 2.002a.746.746 0 0 1-1.045-.384.758.758 0 0 1-.043-.411l.75-4.222-3.09-3a.751.751 0 0 1-.187-.75.743.743 0 0 1 .607-.51l4.275-.623 1.883-3.847a.745.745 0 0 1 .675-.423.755.755 0 0 1 .675.423l1.905 3.84 4.275.622a.749.749 0 0 1 .607.51.748.748 0 0 1-.187.75l-3.09 3 .75 4.223a.75.75 0 0 1-.3.75.749.749 0 0 1-.465.135Z"/></g><g clip-path="url(#g)"><path fill="#69B99D" d="M165.17 187.75a.753.753 0 0 1-.345-.083L161 185.665l-3.825 2.002a.746.746 0 0 1-1.045-.384.758.758 0 0 1-.043-.411l.75-4.222-3.09-3a.751.751 0 0 1-.187-.75.743.743 0 0 1 .607-.51l4.275-.623 1.883-3.847a.745.745 0 0 1 .675-.423.755.755 0 0 1 .675.423l1.905 3.84 4.275.622a.749.749 0 0 1 .607.51.748.748 0 0 1-.187.75l-3.09 3 .75 4.223a.75.75 0 0 1-.3.75.749.749 0 0 1-.465.135Z"/></g><defs><clipPath id="c"><path fill="#fff" d="M64 172h18v18H64z"/></clipPath><clipPath id="d"><path fill="#fff" d="M86 172h18v18H86z"/></clipPath><clipPath id="e"><path fill="#fff" d="M108 172h18v18h-18z"/></clipPath><clipPath id="f"><path fill="#fff" d="M130 172h18v18h-18z"/></clipPath><clipPath id="g"><path fill="#fff" d="M152 172h18v18h-18z"/></clipPath><filter id="a" width="304" height="366" x="0" y="22" color-interpolation-filters="sRGB" filterUnits="userSpaceOnUse"><feFlood flood-opacity="0" result="BackgroundImageFix"/><feColorMatrix in="SourceAlpha" result="hardAlpha" values="0 0 0 0 0 0 0 0 0 0 0 0 0 0 0 0 0 0 127 0"/><feOffset dx="35" dy="35"/><feGaussianBlur stdDeviation="32.5"/><feColorMatrix values="0 0 0 0 0.570833 0 0 0 0 0.413854 0 0 0 0 0.469154 0 0 0 0.16 0"/><feBlend in2="BackgroundImageFix" result="effect1_dropShadow_41_617"/><feBlend in="SourceGraphic" in2="effect1_dropShadow_41_617" result="shape"/></filter><filter id="b" width="108" height="108" x="63" y="-2" color-interpolation-filters="sRGB" filterUnits="userSpaceOnUse"><feFlood flood-opacity="0" result="BackgroundImageFix"/><feColorMatrix in="SourceAlpha" result="hardAlpha" values="0 0 0 0 0 0 0 0 0 0 0 0 0 0 0 0 0 0 127 0"/><feOffset/><feGaussianBlur stdDeviation="19"/><feColorMatrix values="0 0 0 0 0.411765 0 0 0 0 0.72549 0 0 0 0 0.615686 0 0 0 0.32 0"/><feBlend in2="BackgroundImageFix" result="effect1_dropShadow_41_617"/><feBlend in="SourceGraphic" in2="effect1_dropShadow_41_617" result="shape"/></filter></defs></svg>