<svg xmlns="http://www.w3.org/2000/svg" width="515" height="82" fill="none"><path fill="#fff" d="M0 0h515v82H0z"/><path fill="#A6A6A6" d="M171.688 26.112c0 .928-.32 1.701-.96 2.32-.629.608-1.595.912-2.896.912h-2.144V34h-1.456V22.848h3.6c1.259 0 2.213.304 2.864.912.661.608.992 1.392.992 2.352Zm-3.856 2.032c.811 0 1.408-.176 1.792-.528.384-.352.576-.853.576-1.504 0-1.376-.789-2.064-2.368-2.064h-2.144v4.096h2.144Zm7.162-1.488c.256-.501.618-.89 1.088-1.168.48-.277 1.061-.416 1.744-.416v1.504h-.384c-1.632 0-2.448.885-2.448 2.656V34h-1.456v-8.768h1.456v1.424Zm8.376 7.488a4.535 4.535 0 0 1-2.24-.56A4.072 4.072 0 0 1 179.562 32c-.373-.693-.56-1.493-.56-2.4 0-.896.192-1.685.576-2.368a4.011 4.011 0 0 1 1.6-1.584c.672-.373 1.424-.56 2.256-.56.832 0 1.584.187 2.256.56.672.363 1.2.885 1.584 1.568.395.683.592 1.477.592 2.384 0 .907-.202 1.707-.608 2.4a4.112 4.112 0 0 1-1.616 1.584c-.682.373-1.44.56-2.272.56Zm0-1.28c.523 0 1.014-.123 1.472-.368a2.744 2.744 0 0 0 1.104-1.104c.288-.49.432-1.088.432-1.792s-.138-1.301-.416-1.792c-.277-.49-.64-.853-1.088-1.088a2.982 2.982 0 0 0-1.456-.368c-.533 0-1.024.123-1.472.368-.437.235-.789.597-1.056 1.088-.266.49-.4 1.088-.4 1.792 0 .715.128 1.317.384 1.808.267.49.619.859 1.056 1.104a3 3 0 0 0 1.44.352Zm7.907-6.016c.288-.501.714-.917 1.28-1.248.576-.341 1.242-.512 2-.512.778 0 1.482.187 2.112.56a3.92 3.92 0 0 1 1.504 1.584c.362.672.544 1.456.544 2.352 0 .885-.182 1.675-.544 2.368a4.006 4.006 0 0 1-3.616 2.192c-.747 0-1.408-.165-1.984-.496-.566-.341-.998-.763-1.296-1.264v5.776h-1.456V25.232h1.456v1.616Zm5.952 2.736c0-.661-.134-1.237-.4-1.728a2.76 2.76 0 0 0-1.088-1.12 2.946 2.946 0 0 0-1.488-.384c-.534 0-1.03.133-1.488.4-.448.256-.811.635-1.088 1.136-.267.49-.4 1.061-.4 1.712 0 .661.133 1.243.4 1.744.277.49.64.87 1.088 1.136a3 3 0 0 0 1.488.384c.544 0 1.04-.128 1.488-.384a2.87 2.87 0 0 0 1.088-1.136c.266-.501.4-1.088.4-1.76Zm11.444-.304c0 .277-.016.57-.048.88h-7.008c.054.864.347 1.541.88 2.032.544.48 1.2.72 1.968.72.63 0 1.152-.144 1.568-.432.427-.299.726-.693.896-1.184h1.568a3.804 3.804 0 0 1-1.408 2.064c-.704.523-1.578.784-2.624.784-.832 0-1.578-.187-2.24-.56A4.001 4.001 0 0 1 200.689 32c-.373-.693-.56-1.493-.56-2.4 0-.907.182-1.701.544-2.384a3.787 3.787 0 0 1 1.52-1.568c.662-.373 1.419-.56 2.272-.56.832 0 1.568.181 2.208.544.64.363 1.131.864 1.472 1.504.352.63.528 1.344.528 2.144Zm-1.504-.304c0-.555-.122-1.03-.368-1.424a2.313 2.313 0 0 0-1.008-.912 3.006 3.006 0 0 0-1.392-.32c-.736 0-1.365.235-1.888.704-.512.47-.805 1.12-.88 1.952h5.536Zm4.922-2.32a2.81 2.81 0 0 1 1.088-1.168c.48-.277 1.061-.416 1.744-.416v1.504h-.384c-1.632 0-2.448.885-2.448 2.656V34h-1.456v-8.768h1.456v1.424Zm6.329-.224V31.6c0 .427.091.73.272.912.181.17.496.256.944.256h1.072V34h-1.312c-.811 0-1.419-.187-1.824-.56-.405-.373-.608-.987-.608-1.84v-5.168h-1.136v-1.2h1.136v-2.208h1.456v2.208h2.288v1.2h-2.288Zm11.644-1.2-5.28 12.896h-1.504l1.728-4.224-3.536-8.672h1.616l2.752 7.104 2.72-7.104h1.504Zm-62.296 34.88c-.736 0-1.397-.128-1.984-.384-.576-.267-1.029-.63-1.36-1.088a2.825 2.825 0 0 1-.512-1.616h1.552c.053.523.267.965.64 1.328.384.352.939.528 1.664.528.693 0 1.237-.17 1.632-.512.405-.352.608-.8.608-1.344 0-.427-.117-.773-.352-1.04a2.251 2.251 0 0 0-.88-.608 13.768 13.768 0 0 0-1.424-.448c-.736-.192-1.328-.384-1.776-.576a2.952 2.952 0 0 1-1.136-.896c-.309-.416-.464-.97-.464-1.664 0-.608.155-1.147.464-1.616.309-.47.741-.832 1.296-1.088.565-.256 1.211-.384 1.936-.384 1.045 0 1.899.261 2.56.784.672.523 1.051 1.216 1.136 2.08h-1.6c-.053-.427-.277-.8-.672-1.12-.395-.33-.917-.496-1.568-.496-.608 0-1.104.16-1.488.48-.384.31-.576.747-.576 1.312 0 .405.112.736.336.992.235.256.517.453.848.592.341.128.816.277 1.424.448.736.203 1.328.405 1.776.608.448.192.832.496 1.152.912.32.405.48.96.48 1.664 0 .544-.144 1.056-.432 1.536-.288.48-.715.87-1.28 1.168-.565.299-1.232.448-2 .448Zm5.351-4.528c0-.896.181-1.68.544-2.352a3.942 3.942 0 0 1 1.488-1.584 4.145 4.145 0 0 1 2.128-.56c.768 0 1.434.165 2 .496.565.33.986.747 1.264 1.248v-1.6h1.472V60h-1.472v-1.632c-.288.512-.72.939-1.296 1.28-.566.33-1.227.496-1.984.496a3.973 3.973 0 0 1-2.112-.576 4.03 4.03 0 0 1-1.488-1.616c-.363-.693-.544-1.483-.544-2.368Zm7.424.016c0-.661-.134-1.237-.4-1.728a2.76 2.76 0 0 0-1.088-1.12 2.854 2.854 0 0 0-1.488-.4c-.544 0-1.04.128-1.488.384-.448.256-.806.63-1.072 1.12-.267.49-.4 1.067-.4 1.728 0 .672.133 1.259.4 1.76.266.49.624.87 1.072 1.136.448.256.944.384 1.488.384s1.04-.128 1.488-.384a2.87 2.87 0 0 0 1.088-1.136c.266-.501.4-1.083.4-1.744Zm5.428-7.44V60h-1.456V48.16h1.456Zm10.522 7.12c0 .277-.016.57-.048.88h-7.008c.053.864.346 1.541.88 2.032.544.48 1.2.72 1.968.72.629 0 1.152-.144 1.568-.432.426-.299.725-.693.896-1.184h1.568a3.81 3.81 0 0 1-1.408 2.064c-.704.523-1.579.784-2.624.784-.832 0-1.579-.187-2.24-.56A3.988 3.988 0 0 1 188.509 58c-.374-.693-.56-1.493-.56-2.4 0-.907.181-1.701.544-2.384a3.775 3.775 0 0 1 1.52-1.568c.661-.373 1.418-.56 2.272-.56.832 0 1.568.181 2.208.544.64.363 1.13.864 1.472 1.504.352.63.528 1.344.528 2.144Zm-1.504-.304c0-.555-.123-1.03-.368-1.424a2.324 2.324 0 0 0-1.008-.912 3.006 3.006 0 0 0-1.392-.32c-.736 0-1.366.235-1.888.704-.512.47-.806 1.12-.88 1.952h5.536Z"/><path fill="#054457" d="M36.656 50.416c3.072-2.56 5.52-4.688 7.344-6.384 1.824-1.728 3.344-3.52 4.56-5.376 1.216-1.856 1.824-3.68 1.824-5.472 0-1.632-.384-2.912-1.152-3.84-.768-.928-1.952-1.392-3.552-1.392s-2.832.544-3.696 1.632c-.864 1.056-1.312 2.512-1.344 4.368h-6.528c.128-3.84 1.264-6.752 3.408-8.736 2.176-1.984 4.928-2.976 8.256-2.976 3.648 0 6.448.976 8.4 2.928 1.952 1.92 2.928 4.464 2.928 7.632 0 2.496-.672 4.88-2.016 7.152-1.344 2.272-2.88 4.256-4.608 5.952-1.728 1.664-3.984 3.68-6.768 6.048h14.16v5.568H34.16v-4.992l2.496-2.112Zm49.09-21.6H70.195v8.208c.672-.832 1.632-1.504 2.88-2.016a9.862 9.862 0 0 1 3.983-.816c2.56 0 4.656.56 6.288 1.68 1.632 1.12 2.816 2.56 3.552 4.32.737 1.728 1.105 3.584 1.105 5.568 0 3.68-1.056 6.64-3.168 8.88-2.08 2.24-5.056 3.36-8.928 3.36-3.648 0-6.56-.912-8.736-2.736-2.177-1.824-3.409-4.208-3.697-7.152h6.529c.287 1.28.927 2.304 1.92 3.072 1.023.768 2.32 1.152 3.888 1.152 1.887 0 3.311-.592 4.271-1.776.96-1.184 1.44-2.752 1.44-4.704 0-1.984-.496-3.488-1.488-4.512-.96-1.056-2.384-1.584-4.272-1.584-1.344 0-2.463.336-3.36 1.008-.895.672-1.535 1.568-1.92 2.688h-6.431V22.912h21.695v5.904Zm7.491 11.232c0-5.536.992-9.872 2.976-13.008 2.016-3.136 5.344-4.704 9.984-4.704s7.952 1.568 9.936 4.704c2.016 3.136 3.024 7.472 3.024 13.008 0 5.568-1.008 9.936-3.024 13.104-1.984 3.168-5.296 4.752-9.936 4.752s-7.968-1.584-9.984-4.752c-1.984-3.168-2.976-7.536-2.976-13.104Zm19.296 0c0-2.368-.16-4.352-.48-5.952-.288-1.632-.896-2.96-1.824-3.984-.896-1.024-2.24-1.536-4.032-1.536-1.792 0-3.152.512-4.08 1.536-.896 1.024-1.504 2.352-1.824 3.984-.288 1.6-.432 3.584-.432 5.952 0 2.432.144 4.48.432 6.144.288 1.632.896 2.96 1.824 3.984.928.992 2.288 1.488 4.08 1.488 1.792 0 3.152-.496 4.08-1.488.928-1.024 1.536-2.352 1.824-3.984.288-1.664.432-3.712.432-6.144Zm37.727 3.792h-9.072v9.312h-6.336V43.84h-9.072v-5.856h9.072v-9.312h6.336v9.312h9.072v5.856Z"/><path fill="#A6A6A6" d="M408.824 31.52h-4.864l-.896 2.48h-1.536l4.032-11.088h1.68L411.256 34h-1.536l-.896-2.48Zm-.416-1.184-2.016-5.632-2.016 5.632h4.032Zm6.101-3.488c.288-.501.715-.917 1.28-1.248.576-.341 1.243-.512 2-.512a4.06 4.06 0 0 1 2.112.56c.64.373 1.142.901 1.504 1.584.363.672.544 1.456.544 2.352 0 .885-.181 1.675-.544 2.368a3.999 3.999 0 0 1-1.504 1.616 3.973 3.973 0 0 1-2.112.576c-.746 0-1.408-.165-1.984-.496-.565-.341-.997-.763-1.296-1.264v5.776h-1.456V25.232h1.456v1.616Zm5.952 2.736c0-.661-.133-1.237-.4-1.728a2.747 2.747 0 0 0-1.088-1.12 2.946 2.946 0 0 0-1.488-.384c-.533 0-1.029.133-1.488.4-.448.256-.81.635-1.088 1.136-.266.49-.4 1.061-.4 1.712 0 .661.134 1.243.4 1.744.278.49.64.87 1.088 1.136.459.256.955.384 1.488.384.544 0 1.04-.128 1.488-.384a2.857 2.857 0 0 0 1.088-1.136c.267-.501.4-1.088.4-1.76Zm2.901 0c0-.896.181-1.68.544-2.352a3.942 3.942 0 0 1 1.488-1.584 4.145 4.145 0 0 1 2.128-.56c.768 0 1.434.165 2 .496.565.33.986.747 1.264 1.248v-1.6h1.472V34h-1.472v-1.632c-.288.512-.72.939-1.296 1.28-.566.33-1.227.496-1.984.496a3.973 3.973 0 0 1-2.112-.576 4.03 4.03 0 0 1-1.488-1.616c-.363-.693-.544-1.483-.544-2.368Zm7.424.016c0-.661-.134-1.237-.4-1.728a2.76 2.76 0 0 0-1.088-1.12 2.854 2.854 0 0 0-1.488-.4c-.544 0-1.04.128-1.488.384-.448.256-.806.63-1.072 1.12-.267.49-.4 1.067-.4 1.728 0 .672.133 1.259.4 1.76.266.49.624.87 1.072 1.136.448.256.944.384 1.488.384s1.04-.128 1.488-.384a2.87 2.87 0 0 0 1.088-1.136c.266-.501.4-1.083.4-1.744Zm5.428-2.944a2.81 2.81 0 0 1 1.088-1.168c.48-.277 1.062-.416 1.744-.416v1.504h-.384c-1.632 0-2.448.885-2.448 2.656V34h-1.456v-8.768h1.456v1.424Zm6.329-.224V31.6c0 .427.091.73.272.912.181.17.496.256.944.256h1.072V34h-1.312c-.811 0-1.419-.187-1.824-.56-.405-.373-.608-.987-.608-1.84v-5.168h-1.136v-1.2h1.136v-2.208h1.456v2.208h2.288v1.2h-2.288Zm14.636-1.36c.683 0 1.291.144 1.824.432.533.277.955.699 1.264 1.264.309.565.464 1.253.464 2.064V34h-1.44v-4.96c0-.875-.219-1.541-.656-2-.427-.47-1.008-.704-1.744-.704-.757 0-1.36.245-1.808.736-.448.48-.672 1.179-.672 2.096V34h-1.44v-4.96c0-.875-.219-1.541-.656-2-.427-.47-1.008-.704-1.744-.704-.757 0-1.36.245-1.808.736-.448.48-.672 1.179-.672 2.096V34h-1.456v-8.768h1.456v1.264a2.89 2.89 0 0 1 1.152-1.056 3.563 3.563 0 0 1 1.616-.368c.736 0 1.387.165 1.952.496.565.33.987.816 1.264 1.456a2.876 2.876 0 0 1 1.216-1.44 3.582 3.582 0 0 1 1.888-.512Zm13.981 4.208c0 .277-.016.57-.048.88h-7.008c.053.864.346 1.541.88 2.032.544.48 1.2.72 1.968.72.629 0 1.152-.144 1.568-.432.426-.299.725-.693.896-1.184h1.568a3.81 3.81 0 0 1-1.408 2.064c-.704.523-1.579.784-2.624.784-.832 0-1.579-.187-2.24-.56A3.988 3.988 0 0 1 463.176 32c-.374-.693-.56-1.493-.56-2.4 0-.907.181-1.701.544-2.384a3.775 3.775 0 0 1 1.52-1.568c.661-.373 1.418-.56 2.272-.56.832 0 1.568.181 2.208.544.64.363 1.13.864 1.472 1.504.352.63.528 1.344.528 2.144Zm-1.504-.304c0-.555-.123-1.03-.368-1.424a2.324 2.324 0 0 0-1.008-.912 3.006 3.006 0 0 0-1.392-.32c-.736 0-1.366.235-1.888.704-.512.47-.806 1.12-.88 1.952h5.536Zm7.737-3.904c1.067 0 1.931.325 2.592.976.662.64.992 1.568.992 2.784V34h-1.44v-4.96c0-.875-.218-1.541-.656-2-.437-.47-1.034-.704-1.792-.704-.768 0-1.381.24-1.84.72-.448.48-.672 1.179-.672 2.096V34h-1.456v-8.768h1.456v1.248a2.907 2.907 0 0 1 1.168-1.04 3.702 3.702 0 0 1 1.648-.368ZM408.104 60l-2.656-4.56h-1.76V60h-1.456V48.848h3.6c.843 0 1.552.144 2.128.432.587.288 1.024.677 1.312 1.168.288.49.432 1.05.432 1.68 0 .768-.224 1.445-.672 2.032-.437.587-1.099.976-1.984 1.168l2.8 4.672h-1.744Zm-4.416-5.728h2.144c.789 0 1.381-.192 1.776-.576.395-.395.592-.917.592-1.568 0-.661-.197-1.173-.592-1.536-.384-.363-.976-.544-1.776-.544h-2.144v4.224Zm16.318 1.008c0 .277-.016.57-.048.88h-7.008c.054.864.347 1.541.88 2.032.544.48 1.2.72 1.968.72.63 0 1.152-.144 1.568-.432.427-.299.726-.693.896-1.184h1.568a3.804 3.804 0 0 1-1.408 2.064c-.704.523-1.578.784-2.624.784-.832 0-1.578-.187-2.24-.56A4.001 4.001 0 0 1 412.022 58c-.373-.693-.56-1.493-.56-2.4 0-.907.182-1.701.544-2.384a3.787 3.787 0 0 1 1.52-1.568c.662-.373 1.419-.56 2.272-.56.832 0 1.568.181 2.208.544.64.363 1.131.864 1.472 1.504.352.63.528 1.344.528 2.144Zm-1.504-.304c0-.555-.122-1.03-.368-1.424a2.313 2.313 0 0 0-1.008-.912 3.006 3.006 0 0 0-1.392-.32c-.736 0-1.365.235-1.888.704-.512.47-.805 1.12-.88 1.952h5.536Zm7.738-3.904c1.067 0 1.931.325 2.592.976.662.64.992 1.568.992 2.784V60h-1.44v-4.96c0-.875-.218-1.541-.656-2-.437-.47-1.034-.704-1.792-.704-.768 0-1.381.24-1.84.72-.448.48-.672 1.179-.672 2.096V60h-1.456v-8.768h1.456v1.248a2.907 2.907 0 0 1 1.168-1.04 3.702 3.702 0 0 1 1.648-.368Zm7.779 1.36V57.6c0 .427.09.73.272.912.181.17.496.256.944.256h1.072V60h-1.312c-.811 0-1.419-.187-1.824-.56-.406-.373-.608-.987-.608-1.84v-5.168h-1.136v-1.2h1.136v-2.208h1.456v2.208h2.288v1.2h-2.288Z"/><path fill="#054457" d="M293.064 28.816h-15.552v8.208c.672-.832 1.632-1.504 2.88-2.016a9.862 9.862 0 0 1 3.984-.816c2.56 0 4.656.56 6.288 1.68 1.632 1.12 2.816 2.56 3.552 4.32.736 1.728 1.104 3.584 1.104 5.568 0 3.68-1.056 6.64-3.168 8.88-2.08 2.24-5.056 3.36-8.928 3.36-3.648 0-6.56-.912-8.736-2.736-2.176-1.824-3.408-4.208-3.696-7.152h6.528c.288 1.28.928 2.304 1.92 3.072 1.024.768 2.32 1.152 3.888 1.152 1.888 0 3.312-.592 4.272-1.776.96-1.184 1.44-2.752 1.44-4.704 0-1.984-.496-3.488-1.488-4.512-.96-1.056-2.384-1.584-4.272-1.584-1.344 0-2.464.336-3.36 1.008-.896.672-1.536 1.568-1.92 2.688h-6.432V22.912h21.696v5.904Zm31.011 0h-15.552v8.208c.672-.832 1.632-1.504 2.88-2.016a9.862 9.862 0 0 1 3.984-.816c2.56 0 4.656.56 6.288 1.68 1.632 1.12 2.816 2.56 3.552 4.32.736 1.728 1.104 3.584 1.104 5.568 0 3.68-1.056 6.64-3.168 8.88-2.08 2.24-5.056 3.36-8.928 3.36-3.648 0-6.56-.912-8.736-2.736-2.176-1.824-3.408-4.208-3.696-7.152h6.528c.288 1.28.928 2.304 1.92 3.072 1.024.768 2.32 1.152 3.888 1.152 1.888 0 3.312-.592 4.272-1.776.96-1.184 1.44-2.752 1.44-4.704 0-1.984-.496-3.488-1.488-4.512-.96-1.056-2.384-1.584-4.272-1.584-1.344 0-2.464.336-3.36 1.008-.896.672-1.536 1.568-1.92 2.688h-6.432V22.912h21.696v5.904Zm7.49 11.232c0-5.536.992-9.872 2.976-13.008 2.016-3.136 5.344-4.704 9.984-4.704s7.952 1.568 9.936 4.704c2.016 3.136 3.024 7.472 3.024 13.008 0 5.568-1.008 9.936-3.024 13.104-1.984 3.168-5.296 4.752-9.936 4.752s-7.968-1.584-9.984-4.752c-1.984-3.168-2.976-7.536-2.976-13.104Zm19.296 0c0-2.368-.16-4.352-.48-5.952-.288-1.632-.896-2.96-1.824-3.984-.896-1.024-2.24-1.536-4.032-1.536-1.792 0-3.152.512-4.08 1.536-.896 1.024-1.504 2.352-1.824 3.984-.288 1.6-.432 3.584-.432 5.952 0 2.432.144 4.48.432 6.144.288 1.632.896 2.96 1.824 3.984.928.992 2.288 1.488 4.08 1.488 1.792 0 3.152-.496 4.08-1.488.928-1.024 1.536-2.352 1.824-3.984.288-1.664.432-3.712.432-6.144Zm37.728 3.792h-9.072v9.312h-6.336V43.84h-9.072v-5.856h9.072v-9.312h6.336v9.312h9.072v5.856Z"/></svg>