<svg xmlns="http://www.w3.org/2000/svg" width="44" height="37" fill="none"><path fill="#F5F5F5" stroke="#DEDCDA" d="M.5 36v.5h18.552V18.125h-7.916c.357-1.65 1.007-3.273 1.954-4.87 1.059-1.786 2.617-3.712 4.687-5.776l.4-.398-.444-.35-6.52-5.124-.352-.277-.314.32C6.923 5.348 4.331 9.024 2.796 12.681 1.263 16.331.5 20.315.5 24.625V36Zm24.448 0v.5H43.5V18.125h-7.917c.358-1.65 1.008-3.273 1.955-4.87 1.058-1.786 2.616-3.712 4.687-5.776l.4-.398-.444-.35-6.52-5.124-.352-.277-.314.32c-3.625 3.698-6.216 7.374-7.751 11.031-1.533 3.65-2.296 7.634-2.296 11.944V36Z"/></svg>