<svg xmlns="http://www.w3.org/2000/svg" width="40" height="46" fill="none"><path fill="#69B99D" fill-rule="evenodd" d="M19.388 45.306c.25.13.528.196.807.194a1.76 1.76 0 0 0 .806-.203l8.028-4.291c2.276-1.214 4.059-2.57 5.45-4.15 3.024-3.443 4.675-7.835 4.646-12.365l-.096-14.942c-.009-1.72-1.139-3.256-2.81-3.814L21.283.724a4.25 4.25 0 0 0-2.768.015L3.64 5.93C1.976 6.509.866 8.056.875 9.779l.095 14.93c.03 4.537 1.738 8.91 4.811 12.316 1.405 1.558 3.203 2.895 5.505 4.089l8.102 4.192Zm-2.125-17.56c.335.321.77.48 1.205.476a1.71 1.71 0 0 0 1.198-.492l8.773-8.65c.66-.65.653-1.696-.013-2.338a1.731 1.731 0 0 0-2.404.013l-7.579 7.471-3.103-2.983a1.732 1.732 0 0 0-2.403.015c-.66.651-.653 1.697.015 2.34l4.311 4.147Z" clip-rule="evenodd"/></svg>